<svg width="622" height="154" viewBox="0 0 622 154" fill="none" xmlns="http://www.w3.org/2000/svg">
<g clip-path="url(#clip0_2_15)">
<path d="M89.094 76H86.982V45.808H75.174V43.84H100.854V45.808H89.094V76ZM105.843 76H103.683V43.84H105.843V58.816H125.379V43.84H127.539V76H125.379V60.736H105.843V76ZM154.698 76H134.058V43.84H154.698V45.808H136.218V58.864H153.978V60.784H136.218V74.032H154.698V76ZM181.599 85.6H175.167V2.08H181.599V85.6ZM194.536 76H189.256C188.392 76 187.816 75.424 187.816 74.56V6.88C187.816 6.016 188.392 5.44 189.256 5.44H194.536C195.4 5.44 195.976 6.016 195.976 6.88V34.72C195.976 34.912 196.072 35.104 196.264 35.104H204.232C205.096 35.104 205.672 35.584 205.672 36.544V41.824C205.672 42.784 205.096 43.264 204.232 43.264H196.264C196.072 43.264 195.976 43.456 195.976 43.648V74.56C195.976 75.424 195.4 76 194.536 76ZM204.232 33.184H199.336C198.376 33.184 197.896 32.608 197.896 31.648V6.88C197.896 6.016 198.376 5.44 199.336 5.44H204.232C205.096 5.44 205.672 6.016 205.672 6.88V31.648C205.672 32.608 205.096 33.184 204.232 33.184ZM204.232 76H199.336C198.376 76 197.896 75.424 197.896 74.56V46.72C197.896 45.76 198.376 45.184 199.336 45.184H204.232C205.096 45.184 205.672 45.76 205.672 46.72V74.56C205.672 75.424 205.096 76 204.232 76ZM229.101 76H228.621C227.565 76 226.701 75.616 226.221 73.984L224.013 65.824C222.861 61.6 222.477 59.872 222.477 53.344V6.88C222.477 5.92 222.957 5.44 223.917 5.44H229.101C230.061 5.44 230.637 6.016 230.637 6.88V74.56C230.637 75.424 230.061 76 229.101 76ZM219.117 76H213.837C212.973 76 212.397 75.424 212.397 74.56V6.88C212.397 6.016 212.973 5.44 213.837 5.44H214.413C215.469 5.44 216.237 5.824 216.717 7.456L218.925 15.616C220.173 19.84 220.557 21.568 220.557 28.096V74.56C220.557 75.52 219.981 76 219.117 76ZM248.969 76H248.873C247.913 76 247.433 75.424 247.433 74.56V6.88C247.433 6.016 247.913 5.44 248.873 5.44H248.969C252.809 5.44 255.593 7.744 255.593 13.024V68.416C255.593 73.696 252.809 76 248.969 76ZM244.073 76H238.793C237.929 76 237.353 75.424 237.353 74.56V6.88C237.353 6.016 237.929 5.44 238.793 5.44H244.073C244.937 5.44 245.513 6.016 245.513 6.88V74.56C245.513 75.424 244.937 76 244.073 76ZM279.989 76H277.829V43.84H289.589C296.309 43.84 301.253 47.632 301.253 54.208C301.253 60.736 296.309 64.528 289.589 64.528H279.989V76ZM289.781 45.808H279.989V62.608H289.781C295.877 62.608 299.141 59.92 299.141 54.208C299.141 48.448 295.877 45.808 289.781 45.808ZM318.005 76.48C309.461 76.48 303.557 69.952 303.557 59.92C303.557 49.888 309.461 43.36 318.005 43.36C326.549 43.36 332.453 49.888 332.453 59.92C332.453 69.952 326.549 76.48 318.005 76.48ZM318.005 74.368C325.925 74.368 330.197 69.232 330.197 59.92C330.197 50.608 325.925 45.472 318.005 45.472C310.085 45.472 305.813 50.608 305.813 59.92C305.813 69.232 310.085 74.368 318.005 74.368ZM338.444 76H336.284V43.84H338.444V76ZM346.156 76H343.996V43.84H346.396L363.292 68.56L365.932 72.448H366.124V43.84H368.236V76H365.884L349.132 51.52L346.348 47.44H346.156V76ZM383.994 76H381.882V45.808H370.074V43.84H395.754V45.808H383.994V76ZM409.417 76H407.257V43.84H427.897V45.808H409.417V59.824H427.177V61.744H409.417V76ZM444.385 76.48C435.841 76.48 429.937 69.952 429.937 59.92C429.937 49.888 435.841 43.36 444.385 43.36C452.929 43.36 458.833 49.888 458.833 59.92C458.833 69.952 452.929 76.48 444.385 76.48ZM444.385 74.368C452.305 74.368 456.577 69.232 456.577 59.92C456.577 50.608 452.305 45.472 444.385 45.472C436.465 45.472 432.193 50.608 432.193 59.92C432.193 69.232 436.465 74.368 444.385 74.368ZM464.825 76H462.665V43.84H475.241C481.577 43.84 486.137 47.248 486.137 53.056C486.137 58.576 481.865 61.984 476.009 61.984V62.176C477.833 62.704 479.129 64 480.233 65.824L486.185 76H483.737L478.073 66.448C476.441 63.664 474.569 62.368 470.153 62.368H464.825V76ZM464.825 45.808V60.496H475.433C481.001 60.496 483.977 58.096 483.977 53.152C483.977 48.16 481.001 45.808 475.433 45.808H464.825ZM500.405 76H498.245V43.84H501.269L511.637 65.584L514.565 72.016H514.757L517.733 65.584L528.053 43.84H531.077V76H528.965V47.104H528.821L526.901 51.28L515.957 74.08H513.365L502.421 51.28L500.549 47.104H500.357L500.405 51.28V76ZM549.576 76.48C541.032 76.48 535.128 69.952 535.128 59.92C535.128 49.888 541.032 43.36 549.576 43.36C558.12 43.36 564.024 49.888 564.024 59.92C564.024 69.952 558.12 76.48 549.576 76.48ZM549.576 74.368C557.496 74.368 561.768 69.232 561.768 59.92C561.768 50.608 557.496 45.472 549.576 45.472C541.656 45.472 537.384 50.608 537.384 59.92C537.384 69.232 541.656 74.368 549.576 74.368ZM579.796 76H576.964L564.052 43.84H566.356L578.356 73.6H578.548L590.452 43.84H592.756L579.796 76ZM596.525 76H594.365V43.84H596.525V76ZM622.717 76H602.077V43.84H622.717V45.808H604.237V58.864H621.997V60.784H604.237V74.032H622.717V76Z" fill="#9D3DFE"/>
<path d="M8.03562 154H2.75562C1.89162 154 1.31562 153.52 1.31562 152.56V84.88C1.31562 83.92 1.89162 83.44 2.75562 83.44H8.03562C8.89962 83.44 9.47562 84.016 9.47562 84.88V152.56C9.47562 153.424 8.89962 154 8.03562 154ZM12.9316 117.136H12.8356C11.8756 117.136 11.3956 116.656 11.3956 115.696V84.88C11.3956 84.016 11.8756 83.44 12.8356 83.44H12.9316C16.7716 83.44 19.5556 85.744 19.5556 91.024V109.552C19.5556 114.832 16.7716 117.136 12.9316 117.136ZM18.0196 154H12.8356C11.8756 154 11.3956 153.52 11.3956 152.56V120.496C11.3956 119.632 11.8756 119.056 12.8356 119.056H13.2196C16.7716 119.056 19.5556 121.36 19.5556 126.64V152.56C19.5556 153.424 18.9796 154 18.0196 154ZM32.9919 154H27.7119C26.8479 154 26.2719 153.424 26.2719 152.56V84.88C26.2719 84.016 26.8479 83.44 27.7119 83.44H32.9919C33.8559 83.44 34.4319 84.016 34.4319 84.88V112.72C34.4319 112.912 34.5279 113.104 34.7199 113.104H42.6879C43.5519 113.104 44.1279 113.584 44.1279 114.544V119.824C44.1279 120.784 43.5519 121.264 42.6879 121.264H34.7199C34.5279 121.264 34.4319 121.456 34.4319 121.648V152.56C34.4319 153.424 33.8559 154 32.9919 154ZM42.6879 111.184H37.7919C36.8319 111.184 36.3519 110.608 36.3519 109.648V84.88C36.3519 84.016 36.8319 83.44 37.7919 83.44H42.6879C43.5519 83.44 44.1279 84.016 44.1279 84.88V109.648C44.1279 110.608 43.5519 111.184 42.6879 111.184ZM42.6879 154H37.7919C36.8319 154 36.3519 153.424 36.3519 152.56V124.72C36.3519 123.76 36.8319 123.184 37.7919 123.184H42.6879C43.5519 123.184 44.1279 123.76 44.1279 124.72V152.56C44.1279 153.424 43.5519 154 42.6879 154ZM57.5731 154H57.4771C53.6371 154 50.8531 151.696 50.8531 146.416V91.024C50.8531 85.744 53.6371 83.44 57.4771 83.44H57.5731C58.4371 83.44 59.0131 84.016 59.0131 84.88V152.56C59.0131 153.424 58.4371 154 57.5731 154ZM67.5571 116.56H62.3731C61.4131 116.56 60.9331 116.08 60.9331 115.12V84.88C60.9331 84.016 61.4131 83.44 62.3731 83.44H62.4691C66.3091 83.44 69.0931 85.744 69.0931 91.024V115.12C69.0931 116.08 68.5171 116.56 67.5571 116.56ZM62.4691 154H62.3731C61.4131 154 60.9331 153.424 60.9331 152.56V119.824C60.9331 118.864 61.4131 118.384 62.3731 118.384H67.5571C68.5171 118.384 69.0931 118.864 69.0931 119.824V146.416C69.0931 151.696 66.3091 154 62.4691 154ZM87.4254 154H87.3294C86.3694 154 85.8894 153.424 85.8894 152.56V84.88C85.8894 84.016 86.3694 83.44 87.3294 83.44H87.4254C91.2654 83.44 94.0494 85.744 94.0494 91.024V146.416C94.0494 151.696 91.2654 154 87.4254 154ZM82.5294 154H82.4334C78.5934 154 75.8094 151.696 75.8094 146.416V91.024C75.8094 85.744 78.5934 83.44 82.4334 83.44H82.5294C83.3934 83.44 83.9694 84.016 83.9694 84.88V152.56C83.9694 153.424 83.3934 154 82.5294 154ZM127.55 154H122.366C121.406 154 120.926 153.424 120.926 152.56V84.88C120.926 84.016 121.406 83.44 122.366 83.44H127.55C128.51 83.44 128.99 83.92 128.99 84.88V152.56C128.99 153.52 128.51 154 127.55 154ZM107.486 154H102.206C101.342 154 100.766 153.52 100.766 152.56V84.88C100.766 83.92 101.342 83.44 102.206 83.44H107.486C108.35 83.44 108.926 84.016 108.926 84.88V152.56C108.926 153.424 108.35 154 107.486 154ZM115.166 154H114.59C113.534 154 112.766 153.616 112.478 151.984L111.614 146.896C110.846 142.672 110.846 141.04 110.846 134.416V84.88C110.846 84.016 111.326 83.44 112.286 83.44H117.47C118.43 83.44 119.006 84.016 119.006 84.88V134.416C119.006 141.04 118.91 142.672 118.142 146.896L117.278 151.984C116.99 153.616 116.222 154 115.166 154ZM162.537 154H157.353C156.393 154 155.913 153.424 155.913 152.56V84.88C155.913 84.016 156.393 83.44 157.353 83.44H162.537C163.497 83.44 163.977 83.92 163.977 84.88V152.56C163.977 153.52 163.497 154 162.537 154ZM142.473 154H137.193C136.329 154 135.753 153.52 135.753 152.56V84.88C135.753 83.92 136.329 83.44 137.193 83.44H142.473C143.337 83.44 143.913 84.016 143.913 84.88V152.56C143.913 153.424 143.337 154 142.473 154ZM150.153 154H149.577C148.521 154 147.753 153.616 147.465 151.984L146.601 146.896C145.833 142.672 145.833 141.04 145.833 134.416V84.88C145.833 84.016 146.313 83.44 147.273 83.44H152.457C153.417 83.44 153.993 84.016 153.993 84.88V134.416C153.993 141.04 153.897 142.672 153.129 146.896L152.265 151.984C151.977 153.616 151.209 154 150.153 154ZM181.493 163.6H175.061V80.08H181.493V163.6ZM232.541 154H191.261V89.68H232.541V93.616H195.581V119.728H231.101V123.568H195.581V150.064H232.541V154ZM242.085 154H237.765V89.68H242.565L276.357 139.12L281.637 146.896H282.021V89.68H286.245V154H281.541L248.037 105.04L242.469 96.88H242.085V154ZM316.353 154H295.425V89.68H316.353C335.265 89.68 347.265 102.256 347.265 121.84C347.265 141.424 335.265 154 316.353 154ZM316.353 93.616H299.745V150.064H316.353C334.113 150.064 342.753 139.984 342.753 121.84C342.753 103.696 334.113 93.616 316.353 93.616ZM349.331 154H344.819L371.603 89.68H377.459L404.243 154H399.635L390.995 133.552H357.875L349.331 154ZM370.931 102.256L359.507 129.616H389.363L377.843 102.256L374.579 94.096H374.195L370.931 102.256ZM420.285 154H416.061V93.616H392.445V89.68H443.805V93.616H420.285V154ZM449.944 154H445.624V89.68H449.944V154ZM484.961 154.96C467.873 154.96 456.065 141.904 456.065 121.84C456.065 101.776 467.873 88.72 484.961 88.72C502.049 88.72 513.857 101.776 513.857 121.84C513.857 141.904 502.049 154.96 484.961 154.96ZM484.961 150.736C500.801 150.736 509.345 140.464 509.345 121.84C509.345 103.216 500.801 92.944 484.961 92.944C469.121 92.944 460.577 103.216 460.577 121.84C460.577 140.464 469.121 150.736 484.961 150.736ZM523.92 154H519.6V89.68H524.4L558.192 139.12L563.472 146.896H563.856V89.68H568.08V154H563.376L529.872 105.04L524.304 96.88H523.92V154ZM599.55 154.96C582.27 154.96 574.302 145.36 574.302 134.416V133.456H578.622V134.512C578.622 144.784 585.246 150.832 599.646 150.832C611.166 150.832 617.406 146.704 617.406 138.352C617.406 130 612.798 126.928 603.39 124.72L591.966 122.032C582.462 119.824 574.878 115.888 574.878 105.424C574.878 96.784 582.462 88.72 597.342 88.72C613.086 88.72 620.766 98.608 620.766 109.36V110.224H616.446V109.168C616.446 98.896 609.918 92.848 597.246 92.848C585.726 92.848 579.198 96.976 579.198 104.944C579.198 113.296 583.71 115.888 593.406 118.288L604.83 121.072C614.334 123.28 621.726 127.408 621.726 137.872C621.726 146.8 614.526 154.96 599.55 154.96Z" fill="#9D3DFE"/>
</g>
<defs>
<clipPath id="clip0_2_15">
<rect width="622" height="154" fill="white"/>
</clipPath>
</defs>
</svg>
